<mxfile host="www.draw.io" modified="2020-02-26T03:13:38.542Z" agent="Mozilla/5.0 (Windows NT 10.0; Win64; x64) AppleWebKit/537.36 (KHTML, like Gecko) Chrome/78.0.3904.108 Safari/537.36" etag="yEZoqndUWqlUQqI1y3ar" version="12.7.6" type="github">
  <diagram id="XnZiDrjOoUvGHl96sJRK" name="Page-1">
    <mxGraphModel dx="1641" dy="745" grid="1" gridSize="10" guides="1" tooltips="1" connect="1" arrows="1" fold="1" page="1" pageScale="1" pageWidth="827" pageHeight="1169" math="0" shadow="0">
      <root>
        <mxCell id="0" />
        <mxCell id="1" parent="0" />
        <mxCell id="iExcVaD-wQugzZV9in_p-4" style="edgeStyle=orthogonalEdgeStyle;rounded=0;orthogonalLoop=1;jettySize=auto;html=1;exitX=1;exitY=0.5;exitDx=0;exitDy=0;entryX=0;entryY=0.5;entryDx=0;entryDy=0;" edge="1" parent="1" source="iExcVaD-wQugzZV9in_p-2" target="iExcVaD-wQugzZV9in_p-3">
          <mxGeometry relative="1" as="geometry" />
        </mxCell>
        <mxCell id="iExcVaD-wQugzZV9in_p-6" style="edgeStyle=orthogonalEdgeStyle;rounded=0;orthogonalLoop=1;jettySize=auto;html=1;exitX=0.5;exitY=1;exitDx=0;exitDy=0;entryX=0;entryY=0.5;entryDx=0;entryDy=0;" edge="1" parent="1" source="iExcVaD-wQugzZV9in_p-2" target="iExcVaD-wQugzZV9in_p-5">
          <mxGeometry relative="1" as="geometry" />
        </mxCell>
        <mxCell id="iExcVaD-wQugzZV9in_p-2" value="度量指标" style="whiteSpace=wrap;html=1;align=center;" vertex="1" parent="1">
          <mxGeometry x="120" y="100" width="100" height="40" as="geometry" />
        </mxCell>
        <mxCell id="iExcVaD-wQugzZV9in_p-3" value="&lt;span style=&quot;border-bottom: 1px dotted&quot;&gt;cpm&lt;/span&gt;" style="ellipse;whiteSpace=wrap;html=1;align=center;" vertex="1" parent="1">
          <mxGeometry x="350" y="100" width="100" height="40" as="geometry" />
        </mxCell>
        <mxCell id="iExcVaD-wQugzZV9in_p-5" value="&lt;span style=&quot;border-bottom: 1px dotted&quot;&gt;Attribute&lt;/span&gt;" style="ellipse;whiteSpace=wrap;html=1;align=center;" vertex="1" parent="1">
          <mxGeometry x="350" y="180" width="100" height="40" as="geometry" />
        </mxCell>
        <mxCell id="iExcVaD-wQugzZV9in_p-10" style="edgeStyle=orthogonalEdgeStyle;rounded=0;orthogonalLoop=1;jettySize=auto;html=1;exitX=1;exitY=0.5;exitDx=0;exitDy=0;entryX=0;entryY=0.5;entryDx=0;entryDy=0;" edge="1" parent="1" source="iExcVaD-wQugzZV9in_p-7" target="iExcVaD-wQugzZV9in_p-8">
          <mxGeometry relative="1" as="geometry" />
        </mxCell>
        <mxCell id="iExcVaD-wQugzZV9in_p-7" value="演练场景" style="whiteSpace=wrap;html=1;align=center;" vertex="1" parent="1">
          <mxGeometry x="130" y="360" width="100" height="40" as="geometry" />
        </mxCell>
        <mxCell id="iExcVaD-wQugzZV9in_p-8" value="CPU" style="ellipse;whiteSpace=wrap;html=1;align=center;" vertex="1" parent="1">
          <mxGeometry x="330" y="320" width="100" height="40" as="geometry" />
        </mxCell>
        <mxCell id="iExcVaD-wQugzZV9in_p-9" value="&lt;span style=&quot;color: rgb(51 , 51 , 51) ; font-family: &amp;#34;pingfangsc&amp;#34; , &amp;#34;helvetica neue&amp;#34; , &amp;#34;hiragino sans gb&amp;#34; , &amp;#34;arial&amp;#34; , &amp;#34;microsoft yahei ui&amp;#34; , &amp;#34;microsoft yahei&amp;#34; , &amp;#34;simsun&amp;#34; , sans-serif ; font-size: 14px ; background-color: rgb(255 , 255 , 255)&quot;&gt;指定 CPU 使用率，也可以指定 CPU 满载的使用核数&lt;/span&gt;" style="shape=note;size=20;whiteSpace=wrap;html=1;align=left;" vertex="1" parent="1">
          <mxGeometry x="440" y="300" width="220" height="80" as="geometry" />
        </mxCell>
      </root>
    </mxGraphModel>
  </diagram>
</mxfile>
